<svg width="365" height="58" viewBox="0 0 365 58" fill="none" xmlns="http://www.w3.org/2000/svg">
<path d="M243.93 25.3594C246.664 25.3594 248.78 26.2773 250.277 28.1133C251.788 29.9492 252.543 32.6576 252.543 36.2383C252.543 38.6341 252.185 40.6654 251.469 42.332C250.753 43.9857 249.73 45.2422 248.402 46.1016C247.087 46.9609 245.505 47.3906 243.656 47.3906C242.38 47.3906 241.267 47.2018 240.316 46.8242C239.379 46.4336 238.598 45.9128 237.973 45.2617C237.348 44.5977 236.866 43.8685 236.527 43.0742H236.391C236.43 43.8164 236.462 44.5911 236.488 45.3984C236.514 46.2057 236.527 46.9674 236.527 47.6836V56.3945H234.535V25.7695H236.176L236.41 30.0078H236.527C236.879 29.2005 237.374 28.4388 238.012 27.7227C238.65 27.0065 239.457 26.4336 240.434 26.0039C241.41 25.5742 242.576 25.3594 243.93 25.3594ZM243.676 27.0977C242.074 27.0977 240.74 27.4492 239.672 28.1523C238.617 28.8424 237.829 29.8581 237.309 31.1992C236.801 32.5273 236.54 34.1549 236.527 36.082V36.4141C236.527 38.4844 236.781 40.2096 237.289 41.5898C237.81 42.957 238.585 43.9792 239.613 44.6562C240.655 45.3333 241.944 45.6719 243.48 45.6719C244.991 45.6719 246.267 45.3008 247.309 44.5586C248.35 43.8164 249.145 42.7422 249.691 41.3359C250.238 39.9297 250.512 38.224 250.512 36.2188C250.512 33.237 249.939 30.9714 248.793 29.4219C247.66 27.8724 245.954 27.0977 243.676 27.0977ZM266.801 25.3984C267.361 25.3984 267.888 25.431 268.383 25.4961C268.878 25.5612 269.34 25.6523 269.77 25.7695L269.457 27.5859C269.027 27.4688 268.591 27.3841 268.148 27.332C267.706 27.2669 267.23 27.2344 266.723 27.2344C265.72 27.2344 264.822 27.4232 264.027 27.8008C263.246 28.1784 262.582 28.7188 262.035 29.4219C261.488 30.125 261.072 30.9714 260.785 31.9609C260.499 32.9505 260.355 34.0573 260.355 35.2812V47H258.363V25.7695H260.062L260.258 29.7734H260.375C260.701 28.9531 261.156 28.2174 261.742 27.5664C262.341 26.9023 263.064 26.375 263.91 25.9844C264.757 25.5938 265.72 25.3984 266.801 25.3984ZM291.547 36.3555C291.547 37.9961 291.345 39.4935 290.941 40.8477C290.538 42.1888 289.939 43.3477 289.145 44.3242C288.35 45.3008 287.361 46.056 286.176 46.5898C285.004 47.1237 283.637 47.3906 282.074 47.3906C280.59 47.3906 279.268 47.1302 278.109 46.6094C276.951 46.0755 275.967 45.3203 275.16 44.3438C274.366 43.3672 273.76 42.2083 273.344 40.8672C272.927 39.513 272.719 38.0091 272.719 36.3555C272.719 34.0768 273.096 32.1172 273.852 30.4766C274.62 28.8229 275.714 27.5599 277.133 26.6875C278.565 25.8021 280.277 25.3594 282.27 25.3594C284.327 25.3594 286.039 25.8281 287.406 26.7656C288.786 27.6901 289.822 28.9792 290.512 30.6328C291.202 32.2865 291.547 34.194 291.547 36.3555ZM274.75 36.3555C274.75 38.2174 275.017 39.8451 275.551 41.2383C276.085 42.6315 276.892 43.7188 277.973 44.5C279.066 45.2812 280.447 45.6719 282.113 45.6719C283.819 45.6719 285.219 45.2812 286.312 44.5C287.406 43.7188 288.214 42.625 288.734 41.2188C289.255 39.8125 289.516 38.1914 289.516 36.3555C289.516 34.5716 289.268 32.9831 288.773 31.5898C288.279 30.1966 287.497 29.1029 286.43 28.3086C285.362 27.5013 283.969 27.0977 282.25 27.0977C279.789 27.0977 277.921 27.918 276.645 29.5586C275.382 31.1992 274.75 33.4648 274.75 36.3555ZM305.316 27.4102H300.316V47H298.344V27.4102H294.398V26.2383L298.344 25.7305V23.3867C298.344 21.8242 298.565 20.5286 299.008 19.5C299.464 18.4583 300.147 17.6836 301.059 17.1758C301.983 16.6549 303.148 16.3945 304.555 16.3945C305.284 16.3945 305.941 16.4531 306.527 16.5703C307.113 16.6745 307.66 16.8112 308.168 16.9805L307.719 18.6406C307.263 18.4844 306.755 18.3542 306.195 18.25C305.648 18.1458 305.108 18.0938 304.574 18.0938C303.077 18.0938 301.99 18.5104 301.312 19.3438C300.648 20.1641 300.316 21.5052 300.316 23.3672V25.7695H305.316V27.4102ZM311.391 25.7695V47H309.418V25.7695H311.391ZM310.434 17.918C310.928 17.918 311.293 18.0677 311.527 18.3672C311.762 18.6536 311.879 19.0443 311.879 19.5391C311.879 20.0339 311.762 20.4245 311.527 20.7109C311.293 20.9974 310.928 21.1406 310.434 21.1406C309.965 21.1406 309.613 20.9974 309.379 20.7109C309.145 20.4245 309.027 20.0339 309.027 19.5391C309.027 19.0443 309.145 18.6536 309.379 18.3672C309.613 18.0677 309.965 17.918 310.434 17.918ZM320.473 47H318.48V16.6094H320.473V47ZM335.57 25.3594C337.38 25.3594 338.884 25.7826 340.082 26.6289C341.293 27.4753 342.191 28.6341 342.777 30.1055C343.376 31.5768 343.676 33.263 343.676 35.1641V36.5898H328.344C328.344 39.5065 329.014 41.7461 330.355 43.3086C331.71 44.8711 333.643 45.6523 336.156 45.6523C337.471 45.6523 338.611 45.5482 339.574 45.3398C340.551 45.1185 341.632 44.7474 342.816 44.2266V46.043C341.775 46.5117 340.733 46.8503 339.691 47.0586C338.65 47.2799 337.452 47.3906 336.098 47.3906C333.949 47.3906 332.146 46.9479 330.688 46.0625C329.242 45.1641 328.148 43.901 327.406 42.2734C326.677 40.6458 326.312 38.7448 326.312 36.5703C326.312 34.4479 326.664 32.5404 327.367 30.8477C328.083 29.1549 329.125 27.8203 330.492 26.8438C331.872 25.8542 333.565 25.3594 335.57 25.3594ZM335.551 27.0586C333.52 27.0586 331.872 27.7357 330.609 29.0898C329.359 30.431 328.624 32.3711 328.402 34.9102H341.625C341.625 33.3607 341.404 31.9935 340.961 30.8086C340.518 29.6237 339.848 28.7057 338.949 28.0547C338.064 27.3906 336.931 27.0586 335.551 27.0586ZM362.797 41.4336C362.797 42.6966 362.478 43.7773 361.84 44.6758C361.215 45.5612 360.297 46.2383 359.086 46.707C357.875 47.1628 356.384 47.3906 354.613 47.3906C353.142 47.3906 351.827 47.2604 350.668 47C349.509 46.7396 348.539 46.4206 347.758 46.043V44.0898C348.734 44.5716 349.815 44.9622 351 45.2617C352.185 45.5612 353.402 45.7109 354.652 45.7109C356.84 45.7109 358.415 45.3398 359.379 44.5977C360.342 43.8555 360.824 42.8398 360.824 41.5508C360.824 40.7044 360.583 40.0078 360.102 39.4609C359.633 38.901 358.956 38.4193 358.07 38.0156C357.185 37.612 356.117 37.2018 354.867 36.7852C353.565 36.3424 352.406 35.9062 351.391 35.4766C350.388 35.0339 349.6 34.4544 349.027 33.7383C348.454 33.0091 348.168 32.0195 348.168 30.7695C348.168 29.0638 348.852 27.7357 350.219 26.7852C351.586 25.8346 353.422 25.3594 355.727 25.3594C357.003 25.3594 358.188 25.4831 359.281 25.7305C360.388 25.9648 361.391 26.2708 362.289 26.6484L361.586 28.3281C360.779 27.9505 359.848 27.6445 358.793 27.4102C357.738 27.1758 356.684 27.0586 355.629 27.0586C353.897 27.0586 352.543 27.3646 351.566 27.9766C350.59 28.5885 350.102 29.487 350.102 30.6719C350.102 31.5833 350.336 32.2995 350.805 32.8203C351.273 33.3281 351.944 33.7578 352.816 34.1094C353.689 34.4479 354.724 34.8255 355.922 35.2422C357.159 35.6719 358.298 36.1211 359.34 36.5898C360.395 37.0586 361.234 37.6641 361.859 38.4062C362.484 39.1484 362.797 40.1576 362.797 41.4336Z" fill="white"/>
<path d="M130.51 40.4727H130.439C130.475 40.4727 130.475 40.5079 130.51 40.5079H130.546L130.51 40.4727ZM130.51 40.5079C130.226 40.5079 129.48 40.6491 128.698 40.6491C126.247 40.6491 125.395 39.52 125.395 38.0381V28.2295H130.404C130.688 28.2295 130.901 27.9825 130.901 27.6297V22.3019C130.901 22.0197 130.652 21.7727 130.404 21.7727H125.395V15.1395C125.395 14.8925 125.217 14.7514 124.933 14.7514H118.112C117.828 14.7514 117.686 14.9278 117.686 15.1395V21.9491C117.686 21.9491 114.24 22.7959 114.026 22.8312C113.778 22.9018 113.636 23.1134 113.636 23.3604V27.6297C113.636 27.9825 113.884 28.2295 114.169 28.2295H117.65V38.5321C117.65 46.1885 123.014 46.9647 126.673 46.9647C128.343 46.9647 130.368 46.4355 130.688 46.2591C130.865 46.1885 130.972 45.9768 130.972 45.7651V41.0725C130.972 40.7902 130.794 40.5785 130.51 40.5079ZM205.327 33.6278C205.327 27.9472 203.017 27.2063 200.602 27.4533C198.719 27.5591 197.191 28.5117 197.191 28.5117V39.5553C197.191 39.5553 198.719 40.6138 201.028 40.6844C204.261 40.7549 205.327 39.5906 205.327 33.6278ZM213 33.1338C213 43.8951 209.483 46.9647 203.373 46.9647C198.186 46.9647 195.415 44.3538 195.415 44.3538C195.415 44.3538 195.308 45.8004 195.131 45.9768C195.024 46.1532 194.882 46.2238 194.669 46.2238H190.015C189.695 46.2238 189.411 45.9768 189.411 45.6945L189.482 10.8703C189.482 10.588 189.731 10.341 190.015 10.341H196.729C197.014 10.341 197.262 10.588 197.262 10.8703V22.6901C197.262 22.6901 199.856 21.0318 203.657 21.0318L203.621 20.9612C207.387 20.9612 213 22.3725 213 33.1338ZM185.468 21.808H178.825C178.469 21.808 178.292 22.055 178.292 22.4078V39.4495C178.292 39.4495 176.551 40.6491 174.171 40.6491C171.826 40.6491 171.116 39.5906 171.116 37.2266V22.3372C171.116 22.055 170.867 21.808 170.583 21.808H163.833C163.549 21.808 163.3 22.055 163.3 22.3372V38.391C163.3 45.2711 167.172 47 172.501 47C176.906 47 180.459 44.6008 180.459 44.6008C180.459 44.6008 180.636 45.8357 180.707 46.0121C180.779 46.1532 180.992 46.2943 181.205 46.2943H185.432C185.788 46.2943 185.965 46.0474 185.965 45.7651L186.036 22.3372C186.072 22.055 185.788 21.808 185.468 21.808ZM110.652 21.7727H103.937C103.653 21.7727 103.404 22.055 103.404 22.4078V45.4123C103.404 46.0474 103.831 46.2591 104.364 46.2591H110.438C111.078 46.2591 111.22 45.9768 111.22 45.4123V22.3019C111.184 22.0197 110.936 21.7727 110.652 21.7727ZM107.312 11.1525C104.896 11.1525 102.943 13.0578 102.943 15.4923C102.943 17.8916 104.861 19.8321 107.312 19.8321C109.692 19.8321 111.611 17.9269 111.611 15.4923C111.611 13.0931 109.692 11.1525 107.312 11.1525ZM159.392 10.3763H152.714C152.429 10.3763 152.181 10.6233 152.181 10.9056V23.7133H141.736V10.9056C141.736 10.6233 141.488 10.3763 141.203 10.3763H134.489C134.205 10.3763 133.956 10.6233 133.956 10.9056V45.7298C133.956 46.0121 134.24 46.2591 134.489 46.2591H141.203C141.488 46.2591 141.736 46.0121 141.736 45.7298V30.8404H152.181L152.11 45.7298C152.11 46.0121 152.358 46.2591 152.642 46.2591H159.357C159.641 46.2591 159.89 46.0121 159.89 45.7298V10.9056C159.925 10.6233 159.676 10.3763 159.392 10.3763ZM99.8163 25.7949V43.7892C99.8163 43.8951 99.7808 44.1421 99.6387 44.1774C99.6387 44.1774 95.6954 46.9647 89.1943 46.9647C81.3432 46.9647 72 44.5302 72 28.4059C72 12.2816 80.1353 8.96499 88.093 9.00028C94.9849 9.00028 97.7559 10.5527 98.1822 10.835C98.2887 11.0114 98.3598 11.1173 98.3598 11.2584L97.0809 16.8684C97.0809 17.1506 96.7967 17.5035 96.4414 17.3976C95.3046 17.0448 93.5994 16.3744 89.585 16.3744C84.9312 16.3744 79.9577 17.6799 79.9577 28.0883C79.9577 38.4615 84.6825 39.6964 88.093 39.6964C91.0061 39.6964 92.0363 39.3436 92.0363 39.3436V32.1459H87.3825C87.0272 32.1459 86.7785 31.8989 86.7785 31.6166V25.8302C86.7785 25.548 87.0272 25.301 87.3825 25.301H99.2124C99.5677 25.2657 99.8163 25.5127 99.8163 25.7949Z" fill="white"/>
<path fill-rule="evenodd" clip-rule="evenodd" d="M27 0C12.0827 0 0 12.1621 0 27.1776C0 39.1971 7.72441 49.3619 18.4606 52.9642C19.8071 53.1782 20.3386 52.3935 20.3386 51.6802C20.3386 51.0382 20.3031 48.8982 20.3031 46.6156C13.5354 47.8639 11.7638 44.9393 11.2323 43.4413C10.9134 42.6567 9.60236 40.2314 8.4685 39.5894C7.51181 39.09 6.16535 37.8061 8.43307 37.7704C10.5591 37.7347 12.0827 39.732 12.5787 40.5524C15.0236 44.654 18.8858 43.5126 20.4449 42.7993C20.6929 41.0517 21.4016 39.839 22.1811 39.1614C16.1929 38.4837 9.88583 36.1298 9.88583 25.7509C9.88583 22.7906 10.9488 20.3297 12.6496 18.4394C12.3661 17.7617 11.4449 14.9798 12.9331 11.2348C12.9331 11.2348 15.2008 10.5215 20.374 14.0168C22.5354 13.4105 24.8386 13.0895 27.1063 13.0895C29.4094 13.0895 31.6772 13.4105 33.8386 14.0168C39.0118 10.4858 41.2441 11.2348 41.2441 11.2348C42.7323 14.9798 41.7756 17.7617 41.5276 18.4394C43.2638 20.3297 44.2913 22.755 44.2913 25.7509C44.2913 36.1654 37.9842 38.4837 31.9606 39.1614C32.9528 40.0174 33.8031 41.6223 33.8031 44.1903C33.8031 47.8282 33.7677 50.7529 33.7677 51.6445C33.7677 52.3578 34.2638 53.2138 35.6102 52.9285C46.5945 49.1836 54 38.8047 54 27.1419C54 12.1621 41.9173 0 27 0Z" fill="white"/>
</svg>
