<svg width="42" height="68" viewBox="0 0 42 68" fill="none" xmlns="http://www.w3.org/2000/svg">
<path d="M15.8 36.1C14.2 36.8 12.6 37.6 11.1 38.4V15.1C13.8 13.9 15.8 11.1 15.8 7.9C15.8 3.5 12.2 0 7.9 0C3.5 0 0 3.6 0 7.9C0 11.1 1.9 13.9 4.7 15.1V44.5V50.5V52.2C2 53.4 0 56.2 0 59.4C0 63.8 3.6 67.3 7.9 67.3C12.3 67.3 15.8 63.7 15.8 59.4C15.8 56.2 13.9 53.4 11.1 52.2V47.5C11.1 45.5 13.9 44.1 18.5 42C24.9 39.1 33.3 35.2 34.9 25.1L28.23 25.08C27.03 30.78 22.4 33.1 15.8 36.1ZM11.8 59.4C11.8 61.6 10 63.3 7.9 63.3C5.7 63.3 4 61.5 4 59.4C4 57.2 5.8 55.5 7.9 55.5C10.1 55.5 11.8 57.3 11.8 59.4ZM7.9 11.8C5.7 11.8 4 10 4 7.9C4 5.8 5.7 4 7.9 4C10.1 4 11.8 5.8 11.8 7.9C11.8 10.1 10 11.8 7.9 11.8Z" fill="black"/>
<path d="M34.9 8.5V2H28.23V8.5H21.73V15.17H28.23V21.67H34.9V15.17H41.4V8.5H34.9Z" fill="black"/>
</svg>
